<?xml version="1.0" standalone="no"?>
<!DOCTYPE svg PUBLIC "-//W3C//DTD SVG 20010904//EN"
 "http://www.w3.org/TR/2001/REC-SVG-20010904/DTD/svg10.dtd">
<svg version="1.0" xmlns="http://www.w3.org/2000/svg"
 width="700.000000pt" height="700.000000pt" viewBox="0 0 700.000000 700.000000"
 preserveAspectRatio="xMidYMid meet">
<metadata>
Created by potrace 1.14, written by Peter Selinger 2001-2017
</metadata>
<g transform="translate(0.000000,700.000000) scale(0.100000,-0.100000)"
fill="#000000" stroke="none">
<path d="M3129 6186 c-2 -3 -40 -7 -84 -11 -339 -29 -763 -167 -1090 -354
-300 -172 -602 -442 -806 -722 -50 -69 -69 -96 -133 -196 -28 -45 -106 -183
-106 -189 0 -2 -12 -28 -26 -57 -105 -217 -203 -530 -230 -742 -3 -22 -7 -46
-9 -53 -10 -29 -20 -207 -20 -347 0 -159 8 -280 26 -383 9 -52 14 -62 28 -57
9 4 72 27 141 51 69 24 134 48 145 53 19 8 315 115 915 331 271 97 275 99 332
123 l36 16 -25 78 c-14 43 -34 106 -44 141 -10 34 -28 90 -38 125 -11 34 -31
99 -44 143 -55 178 -43 196 114 169 164 -27 235 -19 429 50 58 20 170 57 250
81 196 60 240 82 310 153 69 70 100 82 144 56 93 -55 102 -57 220 -51 61 4
122 8 136 10 14 2 57 7 95 11 164 16 143 9 315 114 67 41 92 51 120 49 42 -4
54 -24 70 -123 6 -39 13 -81 15 -95 2 -14 11 -72 20 -130 9 -58 25 -154 35
-215 18 -104 26 -152 35 -220 3 -16 7 -41 10 -55 3 -14 10 -54 15 -90 15 -98
20 -127 36 -225 9 -49 17 -101 19 -115 2 -14 17 -108 34 -210 44 -264 43 -259
19 -306 -28 -57 -72 -77 -152 -69 -74 7 -56 16 -359 -196 -122 -86 -264 -184
-316 -219 -103 -70 -133 -107 -121 -149 16 -57 -5 -97 -66 -126 -85 -40 -129
-27 -213 61 -79 82 -162 136 -338 220 -124 59 -259 104 -351 118 -36 5 -58 19
-73 48 -5 10 -37 107 -70 216 -56 186 -98 313 -105 321 -3 3 -240 -120 -334
-173 -25 -14 -52 -29 -60 -33 -101 -47 -636 -375 -885 -542 -248 -167 -601
-429 -683 -508 -7 -7 -21 -18 -30 -25 -55 -41 -193 -234 -207 -290 -7 -28 8
-65 34 -85 15 -11 89 -32 141 -40 36 -5 179 -5 220 1 19 3 62 8 95 11 32 4 67
8 76 10 9 2 34 6 55 9 22 4 76 15 121 26 46 11 93 22 105 24 13 3 73 19 133
35 169 47 167 47 295 -75 356 -342 795 -582 1265 -691 192 -44 382 -62 615
-58 113 2 216 6 230 8 14 3 52 8 85 11 33 3 69 8 80 10 11 2 40 7 65 11 99 15
341 79 445 117 605 221 1131 677 1442 1253 164 303 278 681 312 1035 8 85 6
457 -3 496 -9 40 23 78 116 139 207 135 359 262 570 478 128 130 163 186 152
242 -7 39 -25 58 -78 80 -31 13 -68 15 -219 11 -100 -3 -193 -7 -207 -10 -13
-3 -42 -8 -65 -12 -22 -3 -94 -17 -160 -30 -66 -14 -133 -28 -150 -31 -60 -10
-478 -135 -700 -208 -257 -85 -521 -155 -582 -155 -28 0 -10 31 43 77 155 135
349 226 699 328 190 56 260 79 269 86 14 13 -104 212 -221 371 -122 166 -296
343 -504 511 -136 110 -419 272 -619 355 -196 82 -445 149 -660 178 -19 2 -51
7 -70 10 -42 6 -466 15 -471 10z"/>
</g>
</svg>
