<svg xmlns="http://www.w3.org/2000/svg" viewBox="0 0 1500 543.4"><defs><style>.cls-1{fill:#fff;}</style></defs><title>LightSVG</title><g id="Layer_2" data-name="Layer 2"><path class="cls-1" d="M248.49,260.49,125.37,305.12C108.83,218,156.73,109.68,266,73.5c99.86-33,204.39,13.89,249.31,101.07-28.14,9.53-58.72,13.81-80.74,36.36.22.71.45,1.42.68,2.12,9.82-2.27,19.87-3.83,29.41-7,31-10.14,61.82-21,94.12-26.22A162.14,162.14,0,0,1,592.19,178c11.78.54,15.55,8.5,7.81,17.49-9.72,11.28-21,21.36-32.25,31.14-7.68,6.65-16.46,12.07-25,17.69-3.24,2.14-4.5,4.28-4.12,8.25a203.15,203.15,0,0,1-7.11,76.68c-12.3,42.69-36,77.86-70.49,105.69-25.35,20.46-54.08,34.43-86,40.87-62.23,12.58-119.31.28-170.35-37.87-8.62-6.45-16.41-14.07-24.17-21.58-2.91-2.81-5.36-3.22-9-2.24-20.87,5.65-41.76,11.39-63.6,11.57a49.75,49.75,0,0,1-14.69-2.14c-5.57-1.68-7.62-5.72-4.69-10.75,4.07-7,8.63-14.22,14.67-19.37A532.24,532.24,0,0,1,146.45,360,993.57,993.57,0,0,1,253.9,295.31c1.24-.64,2.51-1.23,4.25-2.09.83,2.15,1.7,4.09,2.32,6.1q5.13,16.62,10.14,33.29c1.05,3.47,2.67,5.72,6.81,6.47,6.63,1.2,13.54,2.46,19.51,5.37,12.63,6.17,26.22,10.85,35.67,22.5,4.75,5.85,10.41,5.84,16.15,2.36,3.28-2,5.17-4.52,4-8.41-1.32-4.49.82-6.59,4.43-9,16.27-10.95,32.34-22.22,48.3-33.63,3.06-2.19,5.62-3,9.29-1.82,6.79,2.14,14-4.52,12.81-11.7q-8.6-53.06-17.27-106.09c-1.09-6.71-2-13.46-3.17-20.17-1.11-6.42-3.23-7.87-8.95-5.17-5.14,2.43-9.79,5.87-14.7,8.8a11.25,11.25,0,0,1-4.15,1.86c-11.55,1.23-23.1,2.56-34.68,3.22a14.07,14.07,0,0,1-8.91-3.18c-3.66-3-6.57-3.33-10-.17-.73.68-1.84,1-2.36,1.84-5.55,8.49-14.83,10-23.49,12.79s-17.67,5.22-26.22,8.59a45.38,45.38,0,0,1-28.06,2.08c-11.62-2.71-13.19-.55-9.74,10.62C240.12,233.27,244.27,246.8,248.49,260.49Z"/><path class="cls-1" d="M681,251.26V123.67a25.9,25.9,0,0,1,3.7-.51c20.22.14,40.45,0,60.65.69a52.7,52.7,0,0,1,18.47,4.5c11.87,5.12,18.33,14.42,18.18,27.75-.15,12.54-6.25,20.94-20.37,27.44a30.8,30.8,0,0,0,3.2,1.57c14,4.93,21.64,15.22,22.06,29.64.42,14.91-6.61,26.87-20.7,31.81a94.19,94.19,0,0,1-26.89,5c-18.19.76-36.43.25-54.66.24A27.81,27.81,0,0,1,681,251.26Zm24-20.67c4.89,0,9.25.11,13.6,0,9.17-.29,18.42-.08,27.49-1.26s14.62-7.64,14.87-15.43-4.24-14.55-13.48-15.7c-13.94-1.74-28.1-1.62-42.48-2.3Zm0-85.16v30.19c8.86,0,17.26.16,25.66-.06,5-.14,10.08-.32,14.88-1.51,7.28-1.8,11-7.8,10.54-15.45-.39-6.7-4.91-12.62-11.94-13C731.23,145,718.26,145.43,705,145.43Z"/><path class="cls-1" d="M1376,210.6V123.4h24V251.86c-7.26,0-14.43.32-21.54-.21-1.81-.14-3.72-2.71-5.1-4.53q-28.78-38.2-57.41-76.51c-1.29-1.72-2.67-3.37-5-6.23v87h-24V122.93c7.13,0,14.28-.31,21.36.21,1.82.14,3.75,2.67,5.12,4.48q29.1,38.67,58,77.43C1372.66,206.57,1373.91,208,1376,210.6Z"/><path class="cls-1" d="M927.73,209.57l27.71,42.09c-9.72,0-18.31.15-26.89-.18-1.16,0-2.44-2.38-3.32-3.87-5.7-9.63-11.48-19.23-16.84-29.05-2-3.7-4.38-4.86-8.47-4.72-9.11.33-18.24.11-27.92.11V251.4H848V123.81a10,10,0,0,1,2.55-.61c20.14.16,40.29-.15,60.4.71,21.14.92,37.12,14,40.7,32.59,4.26,22.14-3.23,42.75-22,51.59A13.48,13.48,0,0,0,927.73,209.57ZM872,192.85c13.69-.63,26.9-.46,39.88-2.07,11-1.37,17.08-9.83,17.45-21.08.4-12.58-4.57-21.3-16.11-23.13-13.44-2.13-27.24-1.89-41.22-2.7Z"/><path class="cls-1" d="M1413,405.4v21h-96v-128h93v21h-69v32h62v22h-61v32Z"/><path class="cls-1" d="M966.06,426.82l24.53-55.89c10-22.71,20-45.38,29.79-68.16,1.48-3.43,3.1-5,7-4.72,6.78.43,15.13-2,20,1.1s6.14,11.62,8.83,17.83q22.47,51.72,44.85,103.48c.78,1.8,1.42,3.66,2.44,6.35-8.31,0-16,.17-23.7-.17-1.38-.06-3.19-2-3.88-3.53-2.93-6.35-5.64-12.81-8.17-19.33-1.17-3-2.72-4.33-6.14-4.3-18.23.17-36.46,0-54.68.23a7.16,7.16,0,0,0-5.17,3.46c-3.14,6.47-5.49,13.32-8.66,19.77a7.84,7.84,0,0,1-5.49,3.7C980.77,427.09,974,426.82,966.06,426.82ZM1012,378.4h45l-22.32-53.78Z"/><path class="cls-1" d="M857,388.4v38H833V298.46c1.47-.13,3-.36,4.48-.37,15.44,0,30.9-.47,46.32.18,8.39.35,17.12,1.39,25,4.2,17.87,6.4,27.2,22.06,26.13,41.22-1.54,27.68-16.81,43.28-44.31,44.63C879.6,388.85,868.56,388.4,857,388.4Zm0-20.46c13.1-.73,25.78-.45,38.11-2.41,11.94-1.89,17.33-10.56,17.08-23.19-.24-11.55-6.27-19.72-18-21.23-12.18-1.57-24.59-1.34-37.22-1.9Z"/><path class="cls-1" d="M770.85,311.13l-9.18,19.67c-10.29-3.52-19.85-7.71-29.84-9.9a44.08,44.08,0,0,0-20,.73c-9.73,2.6-11.67,13.42-3.47,19.4,5.49,4,12.39,6.23,18.85,8.75,7.44,2.91,15.26,4.86,22.61,8,13.61,5.72,22.21,15.38,22.37,31s-7.41,26.65-21.28,33.28c-24.31,11.62-62.33,4.57-81.95-15.28l9.73-19.66c6.74,4.06,13,8.39,19.69,11.71,10.18,5,21,7.83,32.52,5.8,8.42-1.47,13.55-5.44,14.44-11.45,1-6.64-2.83-12.69-11.15-15.83-11.2-4.24-22.73-7.62-34-11.73-9.93-3.63-18.06-9.54-21.75-20-7-19.75,3.47-38.33,25.51-45.51C723.74,293.59,753.23,298.39,770.85,311.13Z"/><path class="cls-1" d="M1015.33,123.4H1039v6.68c0,22-.07,44.06,0,66.09.08,13.63,4,25.36,17.52,31.55,22.17,10.15,44.86-2.07,46.34-26.22,1.38-22.55.52-45.23.64-67.85,0-3.19,0-6.37,0-9.25h24a16.29,16.29,0,0,1,.47,3.65q0,34.55,0,69.09c0,12.66-2.41,24.74-10.17,35.11-11.12,14.88-26.84,20.15-44.65,20.41-18.81.26-36.24-4-47.64-20.21-4.89-6.94-9.39-15.81-9.73-24C1014.6,180.32,1015.33,152.09,1015.33,123.4Z"/><path class="cls-1" d="M1259,318.44q-6.81,8.55-13.66,17.17c-28-20.09-50.36-21-66.83-2.91a43,43,0,0,0-1,57.5c15.84,18.64,39.29,18.71,67.72-.14l13.82,15.31c-22.53,25.43-66.06,32-95.85,5.58-27.79-24.67-28.89-68.73-2.41-94.33C1190.11,288.28,1236.73,293.68,1259,318.44Z"/><path class="cls-1" d="M1194,123.4h24v128h-24Z"/></g></svg>