<svg id="Layer_1" data-name="Layer 1" xmlns="http://www.w3.org/2000/svg" viewBox="0 0 1500 543.4"><title>DarkSVG</title><path d="M220.67,259.4,97.55,304C81,216.9,128.91,108.59,238.21,72.41c99.87-33,204.39,13.89,249.31,101.07-28.13,9.53-58.72,13.81-80.74,36.36l.69,2.12c9.81-2.27,19.87-3.83,29.41-7,31-10.15,61.81-21,94.11-26.23a162.28,162.28,0,0,1,33.39-1.91c11.77.54,15.55,8.5,7.8,17.49-9.72,11.28-21,21.36-32.25,31.14-7.68,6.65-16.46,12.08-25,17.69-3.24,2.14-4.5,4.28-4.11,8.25a203.36,203.36,0,0,1-7.12,76.68c-12.3,42.69-36,77.86-70.49,105.69-25.34,20.46-54.07,34.43-86,40.87C285.05,487.26,228,475,176.93,436.81c-8.62-6.44-16.41-14.07-24.17-21.58-2.91-2.81-5.37-3.22-9-2.24-20.87,5.65-41.76,11.39-63.59,11.57a49.38,49.38,0,0,1-14.69-2.14c-5.57-1.68-7.63-5.72-4.7-10.75,4.07-7,8.64-14.21,14.67-19.37a532.39,532.39,0,0,1,43.2-33.4,993.57,993.57,0,0,1,107.45-64.68c1.24-.64,2.5-1.23,4.25-2.09.82,2.15,1.69,4.09,2.31,6.1q5.13,16.62,10.14,33.29c1.05,3.47,2.68,5.72,6.82,6.47,6.63,1.2,13.53,2.46,19.5,5.37,12.64,6.17,26.22,10.85,35.67,22.5,4.75,5.85,10.41,5.84,16.15,2.36,3.28-2,5.18-4.52,4-8.41-1.32-4.49.82-6.59,4.42-9,16.28-11,32.34-22.22,48.31-33.63,3.06-2.19,5.62-3,9.29-1.82,6.79,2.14,14-4.52,12.8-11.7q-8.58-53.06-17.26-106.09c-1.1-6.71-2-13.46-3.17-20.17-1.12-6.42-3.24-7.87-8.95-5.17-5.14,2.44-9.8,5.87-14.71,8.8a11.21,11.21,0,0,1-4.14,1.86c-11.55,1.23-23.1,2.56-34.69,3.22a14.09,14.09,0,0,1-8.91-3.18c-3.65-3-6.56-3.33-10-.17-.73.68-1.84,1-2.35,1.84-5.55,8.49-14.83,10-23.49,12.79s-17.68,5.22-26.22,8.59A45.41,45.41,0,0,1,217.86,208c-11.62-2.71-13.18-.55-9.73,10.62C212.3,232.18,216.46,245.71,220.67,259.4Z"/><path d="M652.8,250.17V122.58a25.78,25.78,0,0,1,3.69-.51c20.22.14,40.45,0,60.65.69a52.75,52.75,0,0,1,18.48,4.5c11.87,5.12,18.33,14.42,18.17,27.75-.14,12.54-6.24,20.94-20.37,27.44a32.89,32.89,0,0,0,3.2,1.57c14,4.93,21.65,15.22,22.06,29.64.43,14.92-6.6,26.87-20.7,31.81a94.12,94.12,0,0,1-26.88,5c-18.19.76-36.44.26-54.66.24A26,26,0,0,1,652.8,250.17Zm24.48-20.67c4.89,0,9.25.11,13.6,0,9.17-.29,18.42-.08,27.49-1.26s14.63-7.64,14.87-15.43-4.23-14.55-13.48-15.7c-13.93-1.74-28.1-1.62-42.48-2.3Zm.19-85.16v30.19c8.86,0,17.26.16,25.66-.06,5-.14,10.08-.32,14.88-1.51,7.27-1.8,11-7.8,10.54-15.45-.39-6.7-4.91-12.62-11.94-13C703.7,143.87,690.73,144.34,677.47,144.34Z"/><path d="M1348.7,209.52v-87h23.76V250.67c-7.28,0-14.45.31-21.57-.22-1.82-.13-3.74-2.7-5.11-4.52q-28.83-38.09-57.5-76.28c-1.29-1.72-2.68-3.36-5-6.22V250.2h-24V122.1c7.16,0,14.33-.31,21.44.21,1.83.14,3.77,2.66,5.15,4.47q29.21,38.55,58.26,77.21C1345.35,205.5,1346.6,206.94,1348.7,209.52Z"/><path d="M900.2,208.48l27.85,42.08c-9.77,0-18.4.15-27-.18-1.17,0-2.46-2.38-3.34-3.86-5.72-9.64-11.54-19.23-16.92-29.06-2-3.69-4.4-4.86-8.51-4.71-9.15.33-18.32.1-28,.1V250.3H820.09V122.72a10.1,10.1,0,0,1,2.56-.61c20.24.16,40.49-.16,60.69.71,21.25.91,37.31,14,40.9,32.59,4.29,22.13-3.24,42.75-22.16,51.59A13.22,13.22,0,0,0,900.2,208.48Zm-55.81-16.72c13.69-.63,26.89-.46,39.88-2.07,11-1.37,17.08-9.83,17.44-21.08.41-12.58-4.56-21.3-16.11-23.13-13.43-2.12-27.24-1.89-41.21-2.7Z"/><path d="M1384.93,404v21.27h-95.7V297.47h93.15v21h-68.74V350h61.54V371.6h-61.56V404Z"/><path d="M938.25,425.73c8.49-19.35,16.51-37.62,24.52-55.89,10-22.71,20-45.38,29.8-68.16,1.47-3.43,3.1-5,7-4.72,6.77.43,15.12-2,20,1.1s6.13,11.62,8.83,17.83q22.47,51.72,44.85,103.48c.78,1.8,1.41,3.66,2.43,6.35-8.31,0-16,.17-23.7-.17-1.37-.06-3.18-2-3.88-3.53-2.93-6.35-5.64-12.81-8.17-19.33-1.16-3-2.72-4.33-6.14-4.3-18.22.17-36.45,0-54.68.23a7.14,7.14,0,0,0-5.16,3.47c-3.15,6.46-5.49,13.31-8.67,19.76a7.84,7.84,0,0,1-5.49,3.7C953,426,946.13,425.73,938.25,425.73Zm45.88-48.56h45l-22.31-53.78C999,341.89,991.67,359.27,984.13,377.17Z"/><path d="M829.42,387.38v38H805.13V297.43c1.49-.12,3-.36,4.54-.36,15.62,0,31.27-.48,46.87.17,8.5.35,17.33,1.39,25.28,4.2,18.08,6.4,27.51,22.06,26.44,41.22-1.56,27.68-17,43.28-44.84,44.63C852.3,387.83,841.12,387.38,829.42,387.38Zm.24-20.53c13.1-.73,25.79-.45,38.11-2.4,11.94-1.9,17.34-10.57,17.08-23.2-.23-11.55-6.27-19.72-18-21.23-12.18-1.57-24.59-1.34-37.22-1.9Z"/><path d="M743,310l-9.19,19.68C723.57,326.19,714,322,704,319.82a43.89,43.89,0,0,0-20,.72c-9.74,2.6-11.68,13.42-3.48,19.4,5.5,4,12.4,6.23,18.86,8.75,7.44,2.91,15.26,4.87,22.61,8,13.61,5.72,22.2,15.38,22.36,31S737,414.3,723.09,420.93c-24.31,11.62-62.32,4.57-82-15.28L650.87,386c6.75,4.06,13,8.39,19.69,11.71,10.18,5,21,7.83,32.53,5.8,8.42-1.47,13.55-5.44,14.43-11.45,1-6.64-2.82-12.69-11.14-15.83-11.21-4.24-22.73-7.62-34-11.73-9.92-3.63-18-9.54-21.75-20-7-19.75,3.48-38.33,25.51-45.51C695.93,292.5,725.41,297.3,743,310Z"/><path d="M987.52,122.42h23.68V129c0,22-.09,44.06,0,66.09.08,13.63,4,25.36,17.52,31.55,22.16,10.15,44.86-2.07,46.33-26.22,1.38-22.54.52-45.23.64-67.85,0-3.19,0-6.37,0-10h23.94a42.17,42.17,0,0,1,.48,4.44q0,34.55,0,69.09c0,12.67-2.4,24.74-10.16,35.11-11.13,14.89-26.84,20.16-44.66,20.41-18.81.26-36.23-4-47.64-20.21-4.89-6.94-9.39-15.81-9.73-24C986.79,179.23,987.52,151,987.52,122.42Z"/><path d="M1231.15,317.35l-13.66,17.17c-28-20.09-50.36-21-66.82-2.91a43,43,0,0,0-1,57.5c15.84,18.64,39.3,18.71,67.72-.14,4.58,5.06,9.22,10.2,13.83,15.31-22.54,25.43-66.07,32-95.85,5.58-27.79-24.67-28.89-68.73-2.42-94.33C1162.29,287.19,1208.92,292.59,1231.15,317.35Z"/><path d="M1166.36,122.41h23.83v127.8h-23.83Z"/></svg>