<svg xmlns="http://www.w3.org/2000/svg" viewBox="0 0 543.4 543.4"><title>Icon DarkSVG</title><g id="Layer_3" data-name="Layer 3"><path d="M174.53,260.49,51.41,305.12C34.88,218,82.78,109.68,192.07,73.5c99.87-33,204.4,13.89,249.32,101.07-28.14,9.53-58.72,13.81-80.75,36.36l.69,2.12c9.82-2.27,19.87-3.83,29.41-7,31-10.14,61.82-21,94.11-26.23a163,163,0,0,1,33.39-1.9c11.78.54,15.55,8.5,7.81,17.49-9.72,11.28-21,21.36-32.25,31.13-7.68,6.66-16.46,12.08-25,17.7-3.24,2.14-4.5,4.28-4.11,8.24a203,203,0,0,1-7.12,76.69c-12.3,42.69-36,77.86-70.48,105.69-25.35,20.46-54.08,34.43-86,40.87-62.23,12.58-119.31.28-170.35-37.87-8.62-6.45-16.41-14.07-24.17-21.58-2.91-2.81-5.37-3.22-9-2.24-20.87,5.65-41.77,11.39-63.6,11.57a49.7,49.7,0,0,1-14.69-2.14c-5.57-1.69-7.63-5.72-4.69-10.75,4.06-7,8.63-14.22,14.67-19.37A528.28,528.28,0,0,1,72.5,360,993.57,993.57,0,0,1,180,295.31c1.24-.64,2.5-1.23,4.25-2.09.82,2.15,1.7,4.08,2.32,6.1q5.11,16.62,10.14,33.29c1.05,3.47,2.67,5.72,6.81,6.47,6.63,1.2,13.54,2.46,19.51,5.37,12.63,6.17,26.21,10.85,35.67,22.5,4.75,5.85,10.4,5.84,16.14,2.36,3.29-2,5.18-4.52,4-8.41-1.32-4.49.82-6.59,4.42-9,16.28-11,32.35-22.22,48.31-33.63,3.06-2.19,5.62-3,9.29-1.82,6.79,2.14,14-4.52,12.81-11.7q-8.6-53.06-17.27-106.09c-1.09-6.72-2-13.46-3.17-20.17-1.11-6.42-3.24-7.87-9-5.17-5.14,2.43-9.8,5.87-14.71,8.8a11.21,11.21,0,0,1-4.14,1.86c-11.55,1.23-23.1,2.56-34.68,3.22a14.07,14.07,0,0,1-8.91-3.18c-3.66-3-6.57-3.33-10-.17-.73.67-1.84,1-2.36,1.84-5.55,8.49-14.83,10-23.49,12.79s-17.68,5.22-26.22,8.59a45.38,45.38,0,0,1-28.06,2.08c-11.62-2.71-13.19-.55-9.74,10.62C166.17,233.27,170.32,246.8,174.53,260.49Z"/></g></svg>