<?xml version="1.0" standalone="no"?>
<!DOCTYPE svg PUBLIC "-//W3C//DTD SVG 20010904//EN"
 "http://www.w3.org/TR/2001/REC-SVG-20010904/DTD/svg10.dtd">
<svg version="1.0" xmlns="http://www.w3.org/2000/svg"
 width="451.000000pt" height="451.000000pt" viewBox="0 0 451.000000 451.000000"
 preserveAspectRatio="xMidYMid meet">
<metadata>
Created by potrace 1.11, written by Peter Selinger 2001-2013
</metadata>
<g transform="translate(0.000000,451.000000) scale(0.100000,-0.100000)"
fill="#000000" stroke="none">
<path d="M2010 3999 c-292 -23 -542 -104 -785 -252 -144 -89 -345 -262 -428
-369 -12 -16 -38 -51 -58 -76 -181 -234 -312 -582 -335 -892 -11 -153 0 -398
20 -417 2 -3 71 21 153 52 193 75 401 151 646 236 109 38 204 72 212 76 10 6
1 48 -46 198 -32 105 -59 197 -59 206 0 39 28 43 144 21 64 -13 64 -13 319 69
213 69 219 72 267 120 27 27 57 49 66 49 9 0 32 -12 51 -26 32 -24 37 -25 126
-19 52 3 104 7 118 10 13 2 50 6 82 10 46 5 64 12 85 34 15 16 54 39 86 52
l59 23 18 -23 c11 -13 19 -37 19 -55 0 -17 4 -47 9 -66 5 -19 12 -57 16 -84 3
-27 13 -86 21 -133 8 -46 16 -98 19 -116 7 -58 16 -111 25 -162 5 -27 11 -69
14 -93 3 -24 8 -47 10 -51 3 -4 7 -29 10 -57 3 -27 8 -60 10 -74 6 -28 25
-147 32 -200 4 -30 0 -40 -30 -69 -33 -32 -37 -33 -75 -23 l-41 10 -148 -107
c-145 -105 -265 -186 -310 -210 -19 -10 -23 -18 -19 -47 3 -19 3 -43 0 -53 -6
-24 -54 -51 -91 -51 -32 0 -96 45 -127 90 -29 41 -294 165 -376 176 -62 8 -78
24 -101 102 -55 187 -81 268 -87 274 -26 30 -998 -564 -1157 -707 -7 -5 -31
-26 -55 -45 -120 -96 -209 -210 -209 -269 0 -79 166 -94 430 -39 52 11 105 21
117 24 12 2 61 15 108 27 l87 23 73 -71 c225 -222 534 -388 845 -453 852 -180
1703 296 1999 1118 72 201 96 357 95 616 l0 172 27 16 c55 32 217 151 297 218
274 229 282 353 22 343 -80 -4 -145 -11 -180 -20 -8 -2 -31 -7 -50 -10 -118
-19 -446 -112 -695 -198 -87 -30 -132 -40 -273 -62 -17 -3 -20 0 -15 10 15 26
128 107 197 141 67 33 275 104 406 140 36 9 66 18 68 19 1 1 -13 30 -33 64
-134 238 -380 484 -629 629 -301 176 -655 258 -996 231z"/>
</g>
</svg>
